# File created by Blade
# Date/Time:  Mon Sep 22 15:39:46 2014
# Frame Rate: 120.000 fps
#------------------------------------------------------
:FULLY-SPECIFIED
:DEGREES
1951
root 1.954246 37.075822 2.619696 1.759923 -5.450019 1.591964
RightUpLeg 6.482792 -4.497919 -3.003913
RightLeg -5.804672 -0.000000 0.000000
RightFoot -11.753015 -13.878522 16.090301
RightToeBase 15.467475 -0.000000 -0.000000
LeftUpLeg 5.632035 4.053553 1.935280
LeftLeg -3.035739 -0.000000 0.000000
LeftFoot -9.763572 14.103090 -18.199425
LeftToeBase 8.574820 -0.000000 -0.000000
Spine 0.978327 -4.412426 -4.801350
RightShoulder -0.248669 -1.511812 -24.953552
RightArm -10.307541 80.167779 25.569828
RightForeArm 69.679041 0.000000 105.036005
RightHand 16.786164 -0.000000 -10.625973
RightHandThumb1 -24.326973 -0.000000 -32.862282
LeftShoulder -13.403277 35.894178 -4.949968
LeftArm 41.677078 15.975239 -61.460474
LeftForeArm 20.166356 -0.000000 27.936683
LeftHand -14.509283 -0.000000 -7.692515
LeftHandThumb1 -26.253704 0.000000 33.147579
Head -0.859003 -39.376410 7.020402
1952
root 1.950036 37.076475 2.615326 1.772053 -5.435070 1.589656
RightUpLeg 6.469096 -4.514596 -2.992543
RightLeg -5.809880 -0.000000 0.000000
RightFoot -11.751257 -13.884466 16.089283
RightToeBase 15.482560 -0.000000 -0.000000
LeftUpLeg 5.613661 4.053948 1.943781
LeftLeg -3.040339 -0.000000 0.000000
LeftFoot -9.747210 14.100030 -18.187519
LeftToeBase 8.563036 -0.000000 -0.000000
Spine 0.947622 -4.411655 -4.797918
RightShoulder -0.248893 -1.519895 -24.941060
RightArm -10.275854 80.164825 25.653449
RightForeArm 69.778457 -0.000000 105.046269
RightHand 16.767767 0.000000 -10.639987
RightHandThumb1 -24.326973 -0.000000 -32.862282
LeftShoulder -13.370792 35.865258 -4.897280
LeftArm 41.653774 15.902026 -61.468050
LeftForeArm 20.144412 -0.000000 28.064937
LeftHand -14.479431 -0.000000 -7.717499
LeftHandThumb1 -26.253704 0.000000 33.147579
Head -0.820691 -39.290968 6.911796
1953
root 1.945666 37.077035 2.612161 1.772269 -5.417947 1.582064
RightUpLeg 6.469950 -4.543923 -2.976376
RightLeg -5.815350 -0.000000 0.000000
RightFoot -11.736558 -13.883224 16.073907
RightToeBase 15.490948 -0.000000 -0.000000
LeftUpLeg 5.607725 4.057736 1.958564
LeftLeg -3.043368 -0.000000 0.000000
LeftFoot -9.724605 14.091162 -18.171270
LeftToeBase 8.565052 -0.000000 -0.000000
Spine 0.930585 -4.414951 -4.787685
RightShoulder -0.241402 -1.531461 -24.930546
RightArm -10.330781 80.156766 25.644752
RightForeArm 69.993143 -0.000000 105.046032
RightHand 16.783536 -0.000000 -10.540102
RightHandThumb1 -24.326973 -0.000000 -32.862282
LeftShoulder -13.345741 35.852699 -4.843888
LeftArm 41.647104 15.832620 -61.491234
LeftForeArm 20.125349 -0.000000 28.170547
LeftHand -14.550031 -0.000000 -7.508581
LeftHandThumb1 -26.253704 0.000000 33.147579
Head -0.777462 -39.209609 6.796517
1954
root 1.941567 37.077076 2.609914 1.771955 -5.413582 1.582846
RightUpLeg 6.477829 -4.536119 -2.968878
RightLeg -5.834349 -0.000000 0.000000
RightFoot -11.702773 -13.905596 16.018625
RightToeBase 15.243424 -0.000000 -0.000000
LeftUpLeg 5.612449 4.050673 1.963683
LeftLeg -3.059021 -0.000000 0.000000
LeftFoot -9.720473 14.098344 -18.186942
LeftToeBase 8.549384 -0.000000 -0.000000
Spine 0.911247 -4.417087 -4.790274
RightShoulder -0.230194 -1.542094 -24.934513
RightArm -10.375516 80.164987 25.671305
RightForeArm 70.506028 -0.000000 104.999513
RightHand 16.863731 -0.000000 -10.052218
RightHandThumb1 -24.326973 -0.000000 -32.862282
LeftShoulder -13.333993 35.843783 -4.786244
LeftArm 41.658234 15.802224 -61.493379
LeftForeArm 19.887470 -0.000000 28.225509
LeftHand -14.488516 -0.000000 -7.363961
LeftHandThumb1 -26.253704 0.000000 33.147579
Head -0.730556 -39.123917 6.687921
1955
root 1.939504 37.077473 2.607902 1.768646 -5.405582 1.589451
RightUpLeg 6.492820 -4.527743 -2.971214
RightLeg -5.863961 -0.000000 0.000000
RightFoot -11.717455 -13.929132 16.051554
RightToeBase 15.322573 -0.000000 -0.000000
LeftUpLeg 5.610236 4.048073 1.961299
LeftLeg -3.057759 -0.000000 0.000000
LeftFoot -9.717280 14.099155 -18.197146
LeftToeBase 8.578902 -0.000000 -0.000000
Spine 0.894028 -4.434644 -4.788639
RightShoulder -0.206347 -1.566057 -24.938903
RightArm -10.373761 80.181343 25.720637
RightForeArm 70.906044 -0.000000 104.977742
RightHand 16.857610 -0.000000 -9.740473
RightHandThumb1 -24.326973 -0.000000 -32.862282
LeftShoulder -13.321756 35.814762 -4.759707
LeftArm 41.624037 15.722371 -61.523392
LeftForeArm 19.906704 -0.000000 28.315235
LeftHand -14.536768 -0.000000 -7.495666
LeftHandThumb1 -26.253704 0.000000 33.147579
Head -0.674302 -39.016648 6.551908
1956
root 1.936678 37.078179 2.606133 1.763497 -5.394299 1.593494
RightUpLeg 6.500888 -4.539135 -2.970847
RightLeg -5.870437 -0.000000 0.000000
RightFoot -11.689694 -13.932007 16.004755
RightToeBase 15.263353 -0.000000 -0.000000
LeftUpLeg 5.605360 4.058804 1.964484
LeftLeg -3.045757 -0.000000 0.000000
LeftFoot -9.702464 14.074283 -18.201737
LeftToeBase 8.560989 -0.000000 -0.000000
Spine 0.878118 -4.455639 -4.788906
RightShoulder -0.183921 -1.555145 -24.932080
RightArm -10.460392 80.188316 25.670016
RightForeArm 71.350604 -0.000000 104.940412
RightHand 16.833433 -0.000000 -9.309683
RightHandThumb1 -24.326973 -0.000000 -32.862282
LeftShoulder -13.293640 35.781694 -4.699983
LeftArm 41.580398 15.671759 -61.571006
LeftForeArm 19.875910 0.000000 28.365509
LeftHand -14.539192 0.000000 -7.526349
LeftHandThumb1 -26.253704 0.000000 33.147579
Head -0.609690 -38.921199 6.425847
1957
root 1.933804 37.078914 2.604746 1.754126 -5.401604 1.599909
RightUpLeg 6.510319 -4.521562 -2.972995
RightLeg -5.876968 -0.000000 0.000000
RightFoot -11.709380 -13.933044 16.048929
RightToeBase 15.323985 -0.000000 -0.000000
LeftUpLeg 5.611102 4.063044 1.964249
LeftLeg -3.041536 -0.000000 0.000000
LeftFoot -9.701846 14.065739 -18.224697
LeftToeBase 8.565124 -0.000000 -0.000000
Spine 0.862480 -4.472230 -4.792742
RightShoulder -0.152437 -1.547183 -24.927409
RightArm -10.460425 80.209716 25.697927
RightForeArm 71.706314 -0.000000 104.894281
RightHand 16.828630 -0.000000 -8.831776
RightHandThumb1 -24.326973 -0.000000 -32.862282
LeftShoulder -13.281163 35.784615 -4.654195
LeftArm 41.572974 15.608738 -61.616140
LeftForeArm 19.792537 0.000000 28.387137
LeftHand -14.421515 -0.000000 -7.505881
LeftHandThumb1 -26.253704 0.000000 33.147579
Head -0.529813 -38.797831 6.294042
1958
root 1.930851 37.079276 2.603879 1.744646 -5.394696 1.601995
RightUpLeg 6.520890 -4.535047 -2.973427
RightLeg -5.877745 -0.000000 0.000000
RightFoot -11.714596 -13.920933 16.061447
RightToeBase 15.348613 -0.000000 -0.000000
LeftUpLeg 5.614949 4.069462 1.969583
LeftLeg -3.034127 -0.000000 0.000000
LeftFoot -9.694194 14.052791 -18.230457
LeftToeBase 8.584031 -0.000000 -0.000000
Spine 0.848409 -4.503682 -4.793393
RightShoulder -0.163221 -1.667415 -24.919581
RightArm -9.735347 80.350184 26.433958
RightForeArm 71.934069 -0.000000 104.847241
RightHand 16.800766 -0.000000 -8.355352
RightHandThumb1 -24.326973 -0.000000 -32.862282
LeftShoulder -13.257179 35.771523 -4.595162
LeftArm 41.547761 15.578088 -61.659985
LeftForeArm 19.697230 -0.000000 28.399427
LeftHand -14.485067 -0.000000 -7.428667
LeftHandThumb1 -26.253704 0.000000 33.147579
Head -0.445722 -38.685997 6.162944
1959
root 1.929406 37.079648 2.603780 1.733251 -5.397069 1.608117
RightUpLeg 6.534933 -4.521049 -2.979074
RightLeg -5.882407 -0.000000 0.000000
RightFoot -11.713376 -13.910716 16.087901
RightToeBase 15.509473 -0.000000 -0.000000
LeftUpLeg 5.621743 4.065675 1.965464
LeftLeg -3.026250 -0.000000 0.000000
LeftFoot -9.699997 14.057769 -18.244550
LeftToeBase 8.608290 -0.000000 -0.000000
Spine 0.830651 -4.520209 -4.788119
RightShoulder -0.159660 -1.679284 -24.922121
RightArm -9.503136 80.390197 26.669324
RightForeArm 71.992037 -0.000000 104.820418
RightHand 16.800686 -0.000000 -7.972505
RightHandThumb1 -24.326973 -0.000000 -32.862282
LeftShoulder -13.209135 35.749189 -4.518499
LeftArm 41.501416 15.551156 -61.737682
LeftForeArm 19.630656 0.000000 28.370097
LeftHand -14.435436 -0.000000 -7.262600
LeftHandThumb1 -26.253704 0.000000 33.147579
Head -0.347090 -38.581852 5.993488
1960
root 1.927549 37.080110 2.603832 1.715508 -5.404598 1.616755
RightUpLeg 6.550421 -4.515090 -2.984635
RightLeg -5.883998 -0.000000 0.000000
RightFoot -11.702682 -13.913368 16.070631
RightToeBase 15.463119 -0.000000 -0.000000
LeftUpLeg 5.635913 4.087568 1.963051
LeftLeg -3.019468 -0.000000 0.000000
LeftFoot -9.691940 14.034794 -18.259691
LeftToeBase 8.610293 -0.000000 -0.000000
Spine 0.821460 -4.531716 -4.788580
RightShoulder -0.154166 -1.628414 -24.917819
RightArm -9.484223 80.406477 26.684668
RightForeArm 72.041628 -0.000000 104.791383
RightHand 16.773640 0.000000 -7.503240
RightHandThumb1 -24.326973 -0.000000 -32.862282
LeftShoulder -13.155270 35.726397 -4.445883
LeftArm 41.455476 15.526460 -61.801434
LeftForeArm 19.665834 -0.000000 28.342598
LeftHand -14.493366 0.000000 -7.199358
LeftHandThumb1 -26.253704 0.000000 33.147579
Head -0.234570 -38.488579 5.816375
1961
root 1.926078 37.080440 2.603710 1.705076 -5.409372 1.621023
RightUpLeg 6.558523 -4.495630 -2.986190
RightLeg -5.880830 -0.000000 0.000000
RightFoot -11.712057 -13.931971 16.067261
RightToeBase 15.499189 -0.000000 -0.000000
LeftUpLeg 5.643370 4.091322 1.960183
LeftLeg -3.014216 -0.000000 0.000000
LeftFoot -9.680077 14.049170 -18.241528
LeftToeBase 8.591330 -0.000000 -0.000000
Spine 0.803504 -4.548748 -4.776460
RightShoulder -0.164140 -1.622359 -24.918928
RightArm -9.322146 80.443465 26.824747
RightForeArm 72.068020 -0.000000 104.754956
RightHand 16.738783 0.000000 -6.977922
RightHandThumb1 -24.326973 -0.000000 -32.862282
LeftShoulder -13.097059 35.699332 -4.378979
LeftArm 41.408493 15.520242 -61.853099
LeftForeArm 19.654901 -0.000000 28.290918
LeftHand -14.522272 -0.000000 -7.182513
LeftHandThumb1 -26.253704 0.000000 33.147579
Head -0.123442 -38.382901 5.620718
1962
root 1.924602 37.081018 2.603905 1.687393 -5.425433 1.627781
RightUpLeg 6.571493 -4.472795 -2.992742
RightLeg -5.875280 -0.000000 0.000000
RightFoot -11.708173 -13.932011 16.056575
RightToeBase 15.431596 -0.000000 -0.000000
LeftUpLeg 5.661875 4.105043 1.956002
LeftLeg -3.010963 -0.000000 0.000000
LeftFoot -9.674075 14.045513 -18.256197
LeftToeBase 8.572153 -0.000000 -0.000000
Spine 0.794508 -4.555722 -4.771394
RightShoulder -0.170377 -1.589306 -24.918104
RightArm -9.180301 80.466461 26.934306
RightForeArm 72.152658 -0.000000 104.698151
RightHand 16.706905 -0.000000 -6.368896
RightHandThumb1 -24.326973 -0.000000 -32.862282
LeftShoulder -13.044409 35.679861 -4.304770
LeftArm 41.371267 15.499641 -61.931610
LeftForeArm 19.666348 -0.000000 28.209473
LeftHand -14.444259 -0.000000 -7.224107
LeftHandThumb1 -26.253704 0.000000 33.147579
Head -0.016627 -38.256714 5.427350
1963
root 1.924182 37.081366 2.604283 1.678822 -5.437671 1.636074
RightUpLeg 6.577535 -4.441091 -3.002525
RightLeg -5.871601 -0.000000 0.000000
RightFoot -11.683353 -13.972203 16.021237
RightToeBase 15.396873 -0.000000 -0.000000
LeftUpLeg 5.670190 4.115203 1.947245
LeftLeg -3.012475 -0.000000 0.000000
LeftFoot -9.676413 14.061237 -18.260855
LeftToeBase 8.593066 -0.000000 -0.000000
Spine 0.773698 -4.570540 -4.759689
RightShoulder -0.184593 -1.550361 -24.926486
RightArm -8.984084 80.468254 27.082314
RightForeArm 72.369886 -0.000000 104.632184
RightHand 16.694424 -0.000000 -5.698190
RightHandThumb1 -24.326973 -0.000000 -32.862282
LeftShoulder -13.014002 35.669996 -4.257273
LeftArm 41.374384 15.499828 -61.969403
LeftForeArm 19.642998 -0.000000 28.089016
LeftHand -14.413839 0.000000 -7.286173
LeftHandThumb1 -26.253704 0.000000 33.147579
Head 0.090679 -38.107865 5.200320
